<?xml version="1.0" encoding="utf-8"?>
<!-- Generator: Adobe Illustrator 16.0.3, SVG Export Plug-In . SVG Version: 6.00 Build 0)  -->
<!DOCTYPE svg PUBLIC "-//W3C//DTD SVG 1.1//EN" "http://www.w3.org/Graphics/SVG/1.1/DTD/svg11.dtd">
<svg version="1.1" id="レイヤー_1" xmlns="http://www.w3.org/2000/svg" xmlns:xlink="http://www.w3.org/1999/xlink" x="0px"
	 y="0px" width="595.28px" height="841.89px" viewBox="0 0 595.28 841.89" enable-background="new 0 0 595.28 841.89"
	 xml:space="preserve">
<g>
	<path d="M326.438,204.799c33.199,60.799,97.598,106.798,159.197,127.198l-1.2,4c-18,3.999-32.399,18.799-38.799,41.199
		c-60.399-34.399-102.399-91.599-127.198-172.397h-0.4v185.997c0,5.2-20.8,16.8-38.799,16.8h-9.2V255.998
		c-37.2,51.999-91.999,94.799-159.998,124.798l-3.6-4.8c61.199-42.399,110.398-108.398,135.998-171.197H135.64l-3.2-11.6h137.598
		V122H115.24l-3.6-11.2h158.397V32.401l62.799,6c-0.8,5.6-4,9.6-14.8,11.2V110.8h83.199l27.999-34.4c0,0,31.2,23.2,49.999,39.6
		c-1.199,4.4-5.6,6-11.199,6H318.037v71.199h66.399l27.199-34c0,0,30.8,23.2,49.6,39.2c-1.2,4.4-5.601,6.4-11.601,6.4H326.438z"/>
	<path d="M223.639,551.199c-1.6,3.601-5.2,6.4-12.8,7.601v235.196c-0.4,3.6-19.6,13.6-37.6,13.6h-8.8V590.799
		c-17.6,20.399-36.799,37.999-57.199,52.799l-4.8-3.199c34.8-49.6,69.999-129.599,87.599-208.797l66.799,21.199
		c-1.6,5.2-6.4,8.8-15.6,8.4c-12,29.999-26,56.799-41.199,81.198L223.639,551.199z M471.635,757.196
		c14.8,23.199,16.8,34.8,10.4,41.6c-17.601,18.8-51.199,2.8-71.199-12.8c-61.199-49.999-89.199-122.799-101.199-208.397
		l-81.598,9.601l-4.4-10.8l84.398-10c-5.199-40.399-6.8-83.599-6.8-128.398l62.399,7.601c-0.801,5.199-4.4,9.999-14.4,11.6
		c-0.8,35.199,0.4,70.398,4,103.998l51.6-6l23.6-36.399c0,0,32.8,18,53.6,32c-0.801,4.399-4.801,7.199-10.4,8l-117.198,13.6
		c9.601,69.999,32.399,131.197,83.199,167.597c6.399,5.601,9.199,5.601,13.199-1.199c6.8-10.4,18-32,25.6-49.6l4.4,0.8
		L471.635,757.196z M378.437,445.602c107.198,4.8,77.198,83.998,35.199,59.599c-6-20-23.199-43.199-38.399-56.799L378.437,445.602z"
		/>
</g>
</svg>
